Coordinates
version=1
nRows=12
nColumns=24
inDegrees=yes

Units are S.I. units (second, meters, Newtons, ...)
Angles are in degrees.

endheader
time	pelvis_tilt	pelvis_list	pelvis_rotation	pelvis_tx	pelvis_ty	pelvis_tz	hip_flexion_r	hip_adduction_r	hip_rotation_r	knee_angle_r	ankle_angle_r	subtalar_angle_r	mtp_angle_r	hip_flexion_l	hip_adduction_l	hip_rotation_l	knee_angle_l	ankle_angle_l	subtalar_angle_l	mtp_angle_l	lumbar_extension	lumbar_bending	lumbar_rotation
      4.60000000	      3.61474878	      7.39335848	      6.56000617	     -0.37758277	      1.05025063	     -0.26293558	     13.18258454	     -6.04201065	    -13.79918611	     -0.64881481	      3.26412915	     -9.37258049	      0.00000000	    -23.02579442	      8.10043082	      5.24269261	     -6.09172173	      1.41423397	    -16.60346587	      0.00000000	    -21.43184620	     -6.80950210	    -12.64457273
      4.61000000	      3.83348685	      7.24670134	      6.51850364	     -0.36407146	      1.04975027	     -0.26110093	     12.79679318	     -5.82897066	    -14.18543952	     -1.66499684	      2.43447871	     -9.67457225	      0.00000000	    -23.16658388	      7.68103980	      4.30544078	     -7.44327072	      1.40668874	    -15.30227015	      0.00000000	    -21.36580098	     -6.70931033	    -12.60434786
      4.62000000	      3.95798298	      7.05285940	      6.50856108	     -0.35037483	      1.04919345	     -0.25915279	     12.39675496	     -5.54092737	    -14.37184739	     -2.43213190	      1.13023548	    -10.71384749	      0.00000000	    -23.10735927	      7.18048804	      3.17286575	     -8.96586673	      1.37323293	    -13.75303047	      0.00000000	    -21.15814598	     -6.57880923	    -12.55985633
      4.63000000	      4.10966289	      6.72426248	      6.51084512	     -0.33655694	      1.04875880	     -0.25709345	     11.88184106	     -5.06446153	    -14.41719916	     -2.95278321	     -0.44017001	    -12.34113683	      0.00000000	    -22.99598391	      6.50161090	      1.93628437	    -10.59251293	      1.19731637	    -12.23677555	      0.00000000	    -20.95624286	     -6.30694685	    -12.47096638
      4.64000000	      4.27284755	      6.24116194	      6.49676621	     -0.32268715	      1.04846711	     -0.25495068	     11.29609206	     -4.37365556	    -14.18148833	     -3.27504695	     -2.06132344	    -14.42515325	      0.00000000	    -22.80333394	      5.64062059	      0.57857060	    -12.33746044	      0.82043457	    -10.78782627	      0.00000000	    -20.73713635	     -5.86704336	    -12.29273311
      4.65000000	      4.38564103	      5.62320485	      6.45751974	     -0.30884986	      1.04827432	     -0.25275239	     10.73479090	     -3.49688327	    -13.47875549	     -3.48968189	     -3.71623587	    -17.03751416	      0.00000000	    -22.47793641	      4.64595914	     -0.73240431	    -14.17769959	      0.06219096	     -9.72870437	      0.00000000	    -20.44848481	     -5.30196977	    -12.02668779
      4.66000000	      4.62388374	      4.82989967	      6.36432224	     -0.29507217	      1.04842522	     -0.25053166	     10.08765544	     -2.40420207	    -12.66925586	     -3.78554436	     -4.72806289	    -19.25194840	      0.00000000	    -22.18583737	      3.44727979	     -2.19167647	    -16.13258881	     -0.96572513	     -8.72852054	      0.00000000	    -20.28952904	     -4.52283916	    -11.65007329
      4.67000000	      4.88811668	      3.93463548	      6.19421962	     -0.28143149	      1.04880059	     -0.24831211	      9.49095460	     -1.19430424	    -11.68969124	     -4.26193836	     -5.13042059	    -21.08665771	      0.00000000	    -21.84238792	      2.16371669	     -3.61595805	    -18.17843187	     -2.38414282	     -8.08584888	      0.00000000	    -20.16731336	     -3.63291526	    -11.17465672
      4.68000000	      5.13496114	      3.00739378	      5.94245097	     -0.26798766	      1.04936849	     -0.24610902	      9.01804207	      0.03087661	    -10.79333434	     -4.99662823	     -4.76957279	    -22.16721957	      0.00000000	    -21.40098278	      0.88026689	     -4.94822224	    -20.31816594	     -4.19533592	     -7.77789000	      0.00000000	    -20.05178279	     -2.71710654	    -10.61224511
      4.69000000	      5.28229362	      2.07384971	      5.69350919	     -0.25477388	      1.05000953	     -0.24402612	      8.70219790	      1.21926286	    -10.11569042	     -5.89466033	     -3.84671199	    -22.59283396	      0.00000000	    -20.74829994	     -0.37949338	     -5.99828268	    -22.59200896	     -6.22931343	     -7.94836174	      0.00000000	    -19.85768145	     -1.78382791	    -10.08718639
      4.70000000	      5.31671722	      1.25147356	      5.41428442	     -0.24186473	      1.05070136	     -0.24200738	      8.53282158	      2.23989658	     -9.72956001	     -6.89928512	     -2.50597630	    -22.35012227	      0.00000000	    -19.86779846	     -1.47862824	     -6.74730014	    -24.99277201	     -8.48857602	     -8.46676074	      0.00000000	    -19.59943896	     -0.98439476	     -9.59733997
      4.71000000	      5.30931506	      0.51106742	      5.20767415	     -0.22928647	      1.05148345	     -0.24015479	      8.38416493	      3.10339442	     -9.95898505	     -7.88501358	     -0.63732284	    -21.13087302	      0.00000000	    -18.78934455	     -2.48624754	     -7.13287270	    -27.57332327	    -10.70806435	     -9.25828547	      0.00000000	    -19.36316291	     -0.24595822	     -9.24336545
